HIERARCHY
ROOT Hips
{
	OFFSET -3.958830 18.904000 13.208200
	CHANNELS 6 Xposition Yposition Zposition Zrotation Yrotation Xrotation 
	JOINT LHipJoint
	{
		OFFSET 0.000000 0.000000 0.000000
		CHANNELS 3 Zrotation Yrotation Xrotation
		JOINT LeftUpLeg
		{
			OFFSET 1.800000 -1.400000 0.085000
			CHANNELS 3 Zrotation Yrotation Xrotation
			JOINT LeftLeg
			{
				OFFSET 2.215000 -6.000000 0.000000
				CHANNELS 3 Zrotation Yrotation Xrotation
				JOINT LeftFoot
				{
					OFFSET 2.500000 -6.900000 0.000000
					CHANNELS 3 Zrotation Yrotation Xrotation
					JOINT LeftToeBase
					{
						OFFSET 0.200000 -0.500000 1.950000
						CHANNELS 3 Zrotation Yrotation Xrotation
						End Site
						{
							OFFSET 0.000000 0.000000 0.000000
						}
					}
				}
			}
		}
	}
	JOINT RHipJoint
	{
		OFFSET 0.000000 0.000000 0.000000
		CHANNELS 3 Zrotation Yrotation Xrotation
		JOINT RightUpLeg
		{
			OFFSET -1.800000 -1.400000 0.085000
			CHANNELS 3 Zrotation Yrotation Xrotation
			JOINT RightLeg
			{
				OFFSET -2.215000 -6.000000 0.000000
				CHANNELS 3 Zrotation Yrotation Xrotation
				JOINT RightFoot
				{
					OFFSET -2.500000 -6.900000 0.000000
					CHANNELS 3 Zrotation Yrotation Xrotation
					JOINT RightToeBase
					{
						OFFSET -0.200000 -0.500000 1.950000
						CHANNELS 3 Zrotation Yrotation Xrotation
						End Site
						{
							OFFSET 0.000000 0.000000 0.000000
						}
					}
				}
			}
		}
	}
	JOINT LowerBack
	{
		OFFSET 0.000000 0.000000 0.000000
		CHANNELS 3 Zrotation Yrotation Xrotation
		JOINT Spine
		{
			OFFSET -0.087000 1.940000 -0.288900
			CHANNELS 3 Zrotation Yrotation Xrotation
			JOINT Spine1
			{
				OFFSET 0.000000 1.950000 0.060000
				CHANNELS 3 Zrotation Yrotation Xrotation
				JOINT Neck
				{
					OFFSET 0.000000 0.000000 0.000000
					CHANNELS 3 Zrotation Yrotation Xrotation
					JOINT Neck1
					{
						OFFSET 0.000000 1.600000 0.340000
						CHANNELS 3 Zrotation Yrotation Xrotation
						JOINT Head
						{
							OFFSET 0.000000 1.667000 -0.240000
							CHANNELS 3 Zrotation Yrotation Xrotation
							End Site
							{
								OFFSET 0.000000 0.000000 0.000000
							}
						}
					}
				}
				JOINT LeftShoulder
				{
					OFFSET 0.000000 0.000000 0.000000
					CHANNELS 3 Zrotation Yrotation Xrotation
					JOINT LeftArm
					{
						OFFSET 2.700000 1.550000 -0.730000
						CHANNELS 3 Zrotation Yrotation Xrotation
						JOINT LeftForeArm
						{
							OFFSET 5.450000 0.000000 0.000000
							CHANNELS 3 Zrotation Yrotation Xrotation
							JOINT LeftHand
							{
								OFFSET 3.450000 0.000000 0.000000
								CHANNELS 3 Zrotation Yrotation Xrotation
								JOINT LeftHandIndex1
								{
									OFFSET 0.750000 0.000000 0.000000
									CHANNELS 3 Zrotation Yrotation Xrotation
									End Site
									{
										OFFSET 0.000000 0.000000 0.000000
									}
								}
							}
						}
					}
				}
				JOINT RightShoulder
				{
					OFFSET 0.000000 0.000000 0.000000
					CHANNELS 3 Zrotation Yrotation Xrotation
					JOINT RightArm
					{
						OFFSET -2.700000 1.550000 -0.730000
						CHANNELS 3 Zrotation Yrotation Xrotation
						JOINT RightForeArm
						{
							OFFSET -5.450000 0.000000 0.000000
							CHANNELS 3 Zrotation Yrotation Xrotation
							JOINT RightHand
							{
								OFFSET -3.450000 0.000000 0.000000
								CHANNELS 3 Zrotation Yrotation Xrotation
								JOINT RightHandIndex1
								{
									OFFSET -0.750000 0.000000 0.000000
									CHANNELS 3 Zrotation Yrotation Xrotation
									End Site
									{
										OFFSET 0.000000 0.000000 0.000000
									}
								}
							}
						}
					}
				}
			}
		}
	}
}
MOTION
Frames: 9
Frame Time: 0.016667
0.195250 16.745790 -0.827660 1.121561 -35.050710 -2.880958 -15.446383 14.319650 3.148365 10.697065 0.219757 -3.213062 -11.685024 7.155576 7.408372 -0.093434 5.345137 2.760219 0.249920 0.351290 0.217910 17.962968 -9.881288 2.278832 -13.965500 -0.179645 -17.676008 0.790126 -2.449996 5.091701 0.124595 -2.615933 3.382452 0.455220 0.257560 0.099120 -2.353721 -5.390837 -7.174145 -0.180205 -5.390884 14.000202 -6.196882 -4.649627 9.275774 -0.801180 -6.808716 -7.333271 -16.095020 16.886749 25.220446 -7.519160 17.523090 -6.130860 -6.450005 -0.446344 -0.853354 -0.862199 -28.998864 4.383912 98.813837 -57.355497 -55.816897 -4.046760 1.922838 -0.110780 0.414060 -0.154240 0.034190 7.760785 1.505220 3.943140 -1.194557 -11.880670 0.617562 -134.358812 52.344609 -103.722473 2.102117 -2.238604 -0.192300 0.185530 0.008990 -0.155830 
0.164340 16.736510 -0.819900 1.147253 -35.241806 -3.075105 -15.422803 14.347937 3.148292 10.794089 0.240829 -3.090411 -11.624328 7.245269 7.796841 -0.073554 5.367882 2.758969 0.241820 0.342060 0.198570 17.971712 -9.917324 2.290843 -14.004080 -0.223722 -17.464276 0.947963 -2.498972 5.243865 0.126960 -2.639754 3.380001 0.447110 0.270220 0.096930 -2.382387 -5.389681 -7.198502 -0.072649 -5.359507 14.291536 -6.334347 -4.647783 8.616480 -0.888755 -6.848975 -7.534347 -16.329979 16.915574 25.323681 -6.787810 17.230060 -5.392310 -4.312557 0.181046 -0.862482 1.440764 -28.063995 3.485610 94.463933 -57.231177 -50.990257 -4.022547 1.997799 -0.118840 0.414020 -0.163070 0.043230 5.868437 0.925922 3.854029 -3.829081 -13.932658 1.405915 -132.562349 53.925026 -102.721535 2.138567 -2.222309 -0.190550 0.182390 0.008470 -0.144030 
0.102280 16.740620 -0.816180 1.370557 -35.707285 -3.766199 -15.378726 14.380479 3.182902 11.201261 0.353234 -2.243363 -11.790603 7.413112 8.016278 -0.038320 5.464686 2.729943 0.242350 0.342250 0.187840 17.988331 -9.998193 2.291814 -14.206621 -0.331243 -17.260920 1.409229 -2.678997 6.010186 0.120691 -2.670426 3.370077 0.441070 0.268630 0.089510 -2.430784 -5.345819 -7.265960 -0.361605 -5.325602 15.322301 -6.293926 -4.751726 7.271391 -1.262451 -7.017019 -7.827509 -16.970117 17.412645 25.565237 -5.870800 17.142060 -5.083310 -0.781724 1.008509 -0.654646 6.087570 -24.869422 1.881335 86.399893 -56.728933 -43.035783 -4.012229 2.195319 -0.108450 0.399000 -0.159950 0.047900 3.274960 0.284984 3.416281 -8.206142 -15.224728 2.505938 -125.159753 55.688642 -93.030755 2.175909 -1.929583 -0.188730 0.183410 0.007620 -0.138910 
0.035810 16.752130 -0.826870 1.458408 -36.915606 -4.338977 -15.307168 14.359135 3.220545 11.552232 0.436235 -1.303102 -11.821930 7.462398 7.911604 0.003622 5.502080 2.722787 0.224540 0.325030 0.167770 18.027866 -10.119146 2.333650 -13.939365 -0.325499 -17.291538 1.638183 -2.763221 6.494848 0.117973 -2.647160 3.388623 0.416980 0.260980 0.066220 -2.570113 -5.105987 -7.359390 -0.775230 -5.834721 16.555007 -6.354559 -5.559603 5.254957 -1.506213 -7.318703 -8.199133 -17.635112 18.740493 25.887600 -4.782770 17.756280 -4.763600 2.045730 0.681253 0.087709 12.580138 -17.288743 0.686519 79.596882 -54.005198 -35.346221 -4.059247 2.462522 -0.085020 0.369570 -0.152410 0.046840 1.394710 0.916895 2.607120 -13.076640 -14.103384 2.877188 -113.828597 57.891750 -75.924288 2.093570 -1.178117 -0.193760 0.187800 0.010740 -0.136150 
-0.028440 16.754350 -0.834580 1.176940 -37.385395 -4.342926 -15.234626 14.328971 3.250738 12.035651 0.374444 -0.964166 -11.690363 7.440872 7.925824 0.030034 5.490990 2.736018 0.223110 0.317240 0.150880 18.060178 -10.255849 2.389762 -13.713113 -0.294237 -17.344363 2.025034 -2.873591 7.008088 0.109020 -2.634198 3.406431 0.398460 0.259210 0.047040 -2.707898 -4.807528 -7.456988 -0.572828 -5.926150 17.828977 -5.853908 -5.882117 2.486595 -1.638281 -7.676018 -8.075542 -18.338835 19.006700 26.303605 -3.450880 17.107090 -4.488340 4.280784 0.605880 0.790395 17.141311 -12.288463 0.804888 73.307064 -49.557542 -27.957676 -4.118330 2.703694 -0.059770 0.334910 -0.143270 0.061020 -0.200989 1.452342 0.945199 -18.544291 -15.768291 2.768993 -103.164243 60.628551 -59.926877 1.935154 -0.695691 -0.193840 0.201740 0.004950 -0.123800 
-0.099720 16.772560 -0.833710 1.012376 -37.402400 -4.065432 -15.190444 14.272917 3.274687 12.390130 0.301824 -0.665908 -11.480334 7.286806 7.434366 0.061467 5.440837 2.757260 0.195980 0.279020 0.128960 18.082391 -10.331399 2.443132 -13.590050 -0.262742 -17.227206 2.324950 -2.931095 6.858417 0.099109 -2.621761 3.425509 0.353990 0.249900 0.034370 -2.816032 -4.551808 -7.530720 -0.525572 -6.095118 18.093260 -5.756962 -6.198316 0.402865 -1.504423 -7.795678 -8.197566 -18.595855 19.523221 27.352609 -2.523120 17.155540 -4.049020 6.225370 -0.247033 1.493281 21.712751 -7.836717 1.238116 65.421158 -44.641766 -20.538926 -4.161647 2.883414 -0.030170 0.302820 -0.130510 0.058800 -2.152959 2.552027 -0.156037 -21.858703 -16.565772 2.122399 -89.036694 62.472030 -44.834419 1.938332 -0.884913 -0.192370 0.199180 0.012580 -0.119510 
-0.174580 16.778230 -0.831510 0.697544 -36.970907 -3.114747 -15.177614 14.288740 3.265241 12.729286 0.116960 -1.378833 -10.945839 7.123775 7.493902 0.061283 5.319608 2.787538 0.177980 0.254290 0.114430 18.070356 -10.302305 2.553297 -13.505950 -0.094474 -17.043408 3.265224 -2.960610 5.933599 0.086448 -2.616418 3.437108 0.320600 0.230210 0.023570 -2.806302 -4.538462 -7.607363 -0.675382 -5.878083 18.449844 -4.575272 -6.069067 -2.232567 -1.378709 -7.998809 -8.437356 -19.103433 19.513721 27.660655 -2.075410 16.833580 -3.959690 7.618613 0.198182 1.793287 24.806091 -5.047467 1.993638 61.684299 -39.255847 -15.731883 -4.195965 2.973815 -0.008260 0.271110 -0.117910 0.051730 -3.486801 2.524248 -0.503079 -25.502183 -18.886950 3.104055 -80.367540 59.486771 -35.741787 2.293868 -1.375350 -0.185080 0.190200 0.017750 -0.116810 
-0.232260 16.782380 -0.821790 0.395343 -35.602900 -1.836272 -15.143056 14.284864 3.234839 12.802413 -0.123998 -2.688912 -10.092604 6.808055 7.506717 0.039214 5.103836 2.854935 0.165570 0.231090 0.099880 18.073423 -10.300263 2.689441 -13.614284 0.080656 -16.880851 4.224582 -2.966298 4.837315 0.074178 -2.650377 3.433238 0.293250 0.220670 0.021650 -2.868410 -4.437162 -7.674640 0.259411 -5.386432 19.015599 -3.897017 -5.430348 -5.263598 -1.158448 -8.246195 -8.352673 -19.787484 18.631373 28.047282 -1.966470 15.707280 -3.415020 7.524894 1.430562 1.502189 27.488223 -4.792043 2.373835 62.702268 -32.995040 -12.651471 -4.217184 2.987767 -0.004040 0.252330 -0.114990 0.053730 -3.650718 1.743274 -0.699395 -29.745503 -22.727211 5.084729 -78.262991 52.929218 -29.786665 2.664048 -1.681113 -0.173550 0.177520 0.017700 -0.106870 
-0.276800 16.796110 -0.806580 0.171146 -34.572917 -0.643583 -15.107961 14.297249 3.214108 12.592917 -0.313335 -3.928525 -9.266184 6.496887 7.516333 0.020471 4.878121 2.927310 0.149080 0.204390 0.077710 18.077538 -10.310010 2.817034 -13.397897 0.295547 -16.693387 4.613621 -2.845178 3.689235 0.068943 -2.646357 3.449249 0.265220 0.211680 0.010270 -2.920933 -4.337500 -7.743753 1.052299 -4.999284 19.743373 -3.094270 -4.815493 -8.780007 -0.920365 -8.653619 -8.475087 -20.870583 17.692071 28.437761 -1.719590 14.317330 -2.697310 7.198609 2.271817 1.397019 29.221174 -4.141126 2.716101 65.745004 -27.128873 -10.210243 -4.217410 2.972562 0.000030 0.228870 -0.116880 0.055590 -3.475174 1.525246 -0.682557 -33.631467 -24.924503 6.673076 -79.660073 44.837215 -24.953346 2.884045 -1.788020 -0.165620 0.169170 0.019980 -0.095110 
